<svg width="20" height="20" viewBox="0 0 20 20" fill="none" xmlns="http://www.w3.org/2000/svg">
<path d="M13.4019 3.80351C13.4325 3.77282 13.4689 3.74848 13.5089 3.73186C13.5489 3.71525 13.5918 3.7067 13.6352 3.7067C13.6785 3.7067 13.7215 3.71525 13.7615 3.73186C13.8015 3.74848 13.8379 3.77282 13.8685 3.80351L16.0062 5.93391C16.0371 5.96443 16.0616 6.00076 16.0783 6.04081C16.095 6.08086 16.1036 6.12382 16.1036 6.16722C16.1036 6.21062 16.095 6.25359 16.0783 6.29364C16.0616 6.33369 16.0371 6.37002 16.0062 6.40053L6.37781 16.0435C6.3473 16.0744 6.31097 16.0989 6.27092 16.1156C6.23087 16.1323 6.1879 16.1409 6.1445 16.1409C6.1011 16.1409 6.05814 16.1323 6.01809 16.1156C5.97804 16.0989 5.94171 16.0744 5.91119 16.0435L3.77496 13.9146C3.74409 13.884 3.71959 13.8477 3.70287 13.8077C3.68615 13.7676 3.67754 13.7246 3.67754 13.6812C3.67754 13.6378 3.68615 13.5949 3.70287 13.5548C3.71959 13.5148 3.74409 13.4784 3.77496 13.4479L13.4019 3.80351ZM17.2996 7.6604C17.3302 7.62972 17.3666 7.60537 17.4066 7.58876C17.4467 7.57215 17.4896 7.5636 17.5329 7.5636C17.5763 7.5636 17.6192 7.57215 17.6592 7.58876C17.6992 7.60537 17.7356 7.62972 17.7662 7.6604L19.9039 9.79227C19.9655 9.85403 20 9.93766 20 10.0248C20 10.112 19.9655 10.1957 19.9039 10.2574L10.2785 19.8989C10.2478 19.9296 10.2115 19.954 10.1714 19.9706C10.1314 19.9872 10.0885 19.9957 10.0451 19.9957C10.0018 19.9957 9.95888 19.9872 9.91885 19.9706C9.87881 19.954 9.84245 19.9296 9.81184 19.8989L7.67268 17.7685C7.62733 17.7221 7.59644 17.6634 7.58375 17.5998C7.57107 17.5361 7.57714 17.4701 7.60123 17.4098C7.61728 17.3693 7.64219 17.333 7.67414 17.3034L17.2996 7.6604ZM12.333 2.69237C12.3637 2.66176 12.3881 2.6254 12.4047 2.58536C12.4213 2.54533 12.4298 2.50241 12.4298 2.45906C12.4298 2.41572 12.4213 2.3728 12.4047 2.33276C12.3881 2.29273 12.3637 2.25637 12.333 2.22575L10.1924 0.0968061C10.1618 0.0661198 10.1254 0.0417736 10.0854 0.0251621C10.0454 0.00855062 10.0025 0 9.95911 0C9.91577 0 9.87285 0.00855062 9.83281 0.0251621C9.79278 0.0417736 9.75641 0.0661198 9.7258 0.0968061L3.85661 5.97328C3.82597 6.00377 3.80166 6.04001 3.78507 6.07993C3.76847 6.11984 3.75993 6.16264 3.75993 6.20586C3.75993 6.24909 3.76847 6.29189 3.78507 6.3318C3.80166 6.37172 3.82597 6.40796 3.85661 6.43845L5.98556 8.57906C6.01608 8.60992 6.05241 8.63442 6.09246 8.65114C6.1325 8.66787 6.17547 8.67648 6.21887 8.67648C6.26227 8.67648 6.30524 8.66787 6.34529 8.65114C6.38534 8.63442 6.42167 8.60992 6.45218 8.57906L12.333 2.69237ZM4.77819 10.2574C4.83963 10.1959 4.87414 10.1125 4.87414 10.0256C4.87414 9.93863 4.83963 9.85524 4.77819 9.79372L2.64924 7.65165C2.61863 7.62097 2.58226 7.59662 2.54223 7.58001C2.50219 7.5634 2.45927 7.55485 2.41593 7.55485C2.37258 7.55485 2.32967 7.5634 2.28963 7.58001C2.2496 7.59662 2.21323 7.62097 2.18262 7.65165L0.0974173 9.73831C0.0665556 9.76883 0.0420544 9.80516 0.0253325 9.84521C0.00861053 9.88526 0 9.92822 0 9.97162C0 10.015 0.00861053 10.058 0.0253325 10.098C0.0420544 10.1381 0.0665556 10.1744 0.0974173 10.2049L2.23803 12.3339C2.26864 12.3646 2.30501 12.3889 2.34504 12.4055C2.38508 12.4221 2.428 12.4307 2.47134 12.4307C2.51468 12.4307 2.5576 12.4221 2.59764 12.4055C2.63767 12.3889 2.67404 12.3646 2.70465 12.3339L4.77819 10.2574Z" fill="#F0B90B"/>
</svg>
