<svg width="18" height="14" viewBox="0 0 18 14" fill="none" xmlns="http://www.w3.org/2000/svg">
<path d="M0 13.25C0 13.4158 0.065848 13.5747 0.183058 13.6919C0.300268 13.8092 0.45924 13.875 0.625 13.875H16.875C17.0408 13.875 17.1997 13.8092 17.3169 13.6919C17.4342 13.5747 17.5 13.4158 17.5 13.25V5.67188H0V13.25ZM2.57812 7.85938C2.57812 7.77649 2.61105 7.69701 2.66965 7.6384C2.72826 7.5798 2.80774 7.54688 2.89062 7.54688H6.48438C6.56726 7.54688 6.64674 7.5798 6.70535 7.6384C6.76395 7.69701 6.79688 7.77649 6.79688 7.85938V10.3594C6.79688 10.4423 6.76395 10.5217 6.70535 10.5803C6.64674 10.639 6.56726 10.6719 6.48438 10.6719H2.89062C2.80774 10.6719 2.72826 10.639 2.66965 10.5803C2.61105 10.5217 2.57812 10.4423 2.57812 10.3594V7.85938ZM16.875 0.125H0.625C0.45924 0.125 0.300268 0.190848 0.183058 0.308058C0.065848 0.425269 0 0.58424 0 0.75V3.32812H17.5V0.75C17.5 0.58424 17.4342 0.425269 17.3169 0.308058C17.1997 0.190848 17.0408 0.125 16.875 0.125Z" fill="white"/>
</svg>
