<svg width="610" height="611" viewBox="0 0 610 611" fill="none" xmlns="http://www.w3.org/2000/svg">
<path d="M153.636 469.453C124.879 442.866 103.626 409.178 92.0148 371.774C80.4034 334.37 78.8423 294.569 87.4884 256.371C96.1345 218.173 114.683 182.923 141.27 154.166C167.857 125.408 201.545 104.156 238.949 92.5443C276.352 80.933 316.153 79.3719 354.352 88.018C392.55 96.664 427.799 115.213 456.557 141.799C485.314 168.386 506.567 202.075 518.178 239.478C529.79 276.882 531.351 316.683 522.705 354.881L435.661 335.179C440.849 312.26 439.912 288.38 432.945 265.937C425.979 243.495 413.227 223.282 395.973 207.33C378.718 191.378 357.568 180.249 334.65 175.061C311.731 169.874 287.85 170.81 265.408 177.777C242.966 184.744 222.753 197.495 206.801 214.75C190.848 232.004 179.719 253.154 174.532 276.073C169.344 298.992 170.281 322.873 177.247 345.315C184.214 367.757 196.966 387.97 214.22 403.922L153.636 469.453Z" fill="#627EEA"/>
<g filter="url(#filter0_d_2011_807)">
<path d="M363.524 90.3716C401.307 100.684 435.709 120.759 463.274 148.581C490.838 176.403 510.594 210.99 520.555 248.867C530.515 286.744 530.33 326.575 520.018 364.357C509.706 402.14 489.63 436.542 461.809 464.107L398.996 400.709C415.689 384.17 427.735 363.529 433.922 340.859C440.109 318.19 440.22 294.291 434.244 271.565C428.268 248.839 416.414 228.086 399.876 211.393C383.337 194.7 362.695 182.655 340.026 176.468L363.524 90.3716Z" fill="#F7931A"/>
</g>
<path d="M471.111 156.692C497.373 185.748 515.523 221.204 523.738 259.497C531.954 297.79 529.945 337.571 517.913 374.841C505.881 412.112 484.25 445.559 455.195 471.82C426.14 498.081 390.684 516.232 352.391 524.447L333.67 437.187C356.646 432.258 377.92 421.368 395.353 405.611C412.786 389.854 425.764 369.786 432.983 347.424C440.203 325.062 441.408 301.193 436.479 278.217C431.55 255.241 420.659 233.968 404.903 216.535L471.111 156.692Z" fill="#64C8FF"/>
<g filter="url(#filter1_d_2011_807)">
<path d="M436.199 486.678C404.494 509.669 367.294 523.91 328.341 527.968C289.387 532.026 250.051 525.759 214.288 509.796C178.524 493.834 147.592 468.738 124.6 437.032C101.609 405.326 87.369 368.127 83.311 329.174L172.076 319.926C174.511 343.299 183.055 365.618 196.849 384.642C210.644 403.665 229.203 418.722 250.662 428.3C272.12 437.877 295.721 441.638 319.094 439.203C342.466 436.768 364.785 428.224 383.809 414.429L436.199 486.678Z" fill="#0B131C"/>
</g>
<g filter="url(#filter2_d_2011_807)">
<path d="M406.461 504.878C371.56 522.649 332.597 530.92 293.487 528.86C254.376 526.8 216.497 514.481 183.657 493.141C150.817 471.802 124.172 442.194 106.401 407.293C88.6303 372.393 80.3594 333.429 82.4196 294.319L171.541 299.014C170.305 322.48 175.268 345.858 185.93 366.798C196.593 387.739 212.579 405.504 232.284 418.307C251.988 431.111 274.715 438.502 298.181 439.738C321.648 440.974 345.026 436.012 365.966 425.349L406.461 504.878Z" fill="#72F1C8"/>
</g>
<path d="M246.476 521.296C208.693 510.984 174.291 490.908 146.726 463.086C119.162 435.264 99.4062 400.677 89.4455 362.8C79.4847 324.924 79.6697 285.093 89.9818 247.31C100.294 209.527 120.37 175.125 148.191 147.56L211.004 210.959C194.311 227.497 182.265 248.139 176.078 270.808C169.891 293.478 169.78 317.377 175.756 340.103C181.732 362.829 193.586 383.581 210.124 400.274C226.663 416.967 247.305 429.013 269.974 435.2L246.476 521.296Z" fill="#CB89F0"/>
<path d="M146.283 463.086C118.718 435.265 98.9627 400.677 89.002 362.8C79.0412 324.924 79.2262 285.093 89.5382 247.31C99.8503 209.527 119.926 175.125 147.748 147.56C175.57 119.996 210.157 100.24 248.034 90.2797L270.732 176.59C248.006 182.567 227.253 194.42 210.56 210.959C193.867 227.497 181.821 248.139 175.634 270.808C169.447 293.478 169.336 317.377 175.312 340.103C181.289 362.829 193.142 383.581 209.681 400.274L146.283 463.086Z" fill="#317800"/>
<g filter="url(#filter3_b_2011_807)">
<rect x="390.447" y="108.83" width="62.8988" height="37.9767" rx="10" fill="#F3F3F3" fill-opacity="0.67"/>
<path d="M412.027 121.909V132.818H409.72V124.098H409.656L407.158 125.664V123.619L409.859 121.909H412.027ZM418.897 133.058C417.981 133.054 417.192 132.829 416.532 132.381C415.875 131.934 415.369 131.286 415.014 130.437C414.662 129.588 414.488 128.567 414.492 127.374C414.492 126.185 414.668 125.171 415.019 124.333C415.374 123.495 415.88 122.857 416.537 122.42C417.198 121.98 417.984 121.76 418.897 121.76C419.81 121.76 420.594 121.98 421.251 122.42C421.912 122.861 422.42 123.5 422.775 124.338C423.13 125.173 423.306 126.185 423.302 127.374C423.302 128.571 423.125 129.594 422.769 130.442C422.418 131.291 421.914 131.939 421.257 132.387C420.6 132.834 419.813 133.058 418.897 133.058ZM418.897 131.146C419.522 131.146 420.021 130.831 420.394 130.203C420.767 129.574 420.951 128.631 420.948 127.374C420.948 126.547 420.862 125.858 420.692 125.307C420.525 124.757 420.287 124.343 419.978 124.066C419.673 123.789 419.312 123.651 418.897 123.651C418.275 123.651 417.778 123.962 417.405 124.583C417.033 125.204 416.844 126.135 416.841 127.374C416.841 128.212 416.924 128.912 417.091 129.473C417.262 130.03 417.501 130.45 417.81 130.73C418.119 131.007 418.481 131.146 418.897 131.146ZM430.918 130.773V130.197C430.918 129.761 431.01 129.359 431.195 128.994C431.383 128.624 431.655 128.329 432.01 128.109C432.369 127.886 432.805 127.774 433.32 127.774C433.842 127.774 434.281 127.884 434.636 128.104C434.995 128.324 435.265 128.619 435.446 128.988C435.63 129.354 435.723 129.757 435.723 130.197V130.773C435.723 131.209 435.63 131.613 435.446 131.982C435.261 132.348 434.989 132.641 434.631 132.861C434.272 133.084 433.835 133.196 433.32 133.196C432.798 133.196 432.36 133.084 432.005 132.861C431.65 132.641 431.38 132.348 431.195 131.982C431.01 131.613 430.918 131.209 430.918 130.773ZM432.468 130.197V130.773C432.468 131.025 432.528 131.263 432.649 131.486C432.773 131.71 432.997 131.822 433.32 131.822C433.643 131.822 433.864 131.712 433.981 131.492C434.102 131.272 434.162 131.032 434.162 130.773V130.197C434.162 129.938 434.105 129.697 433.991 129.473C433.878 129.249 433.654 129.137 433.32 129.137C433.001 129.137 432.779 129.249 432.654 129.473C432.53 129.697 432.468 129.938 432.468 130.197ZM425.32 124.53V123.954C425.32 123.514 425.414 123.111 425.602 122.745C425.79 122.376 426.062 122.081 426.417 121.861C426.776 121.641 427.209 121.531 427.717 121.531C428.242 121.531 428.683 121.641 429.038 121.861C429.393 122.081 429.663 122.376 429.847 122.745C430.032 123.111 430.124 123.514 430.124 123.954V124.53C430.124 124.97 430.03 125.373 429.842 125.739C429.657 126.105 429.386 126.398 429.027 126.618C428.672 126.834 428.235 126.943 427.717 126.943C427.198 126.943 426.76 126.833 426.401 126.613C426.046 126.389 425.776 126.096 425.591 125.734C425.41 125.368 425.32 124.967 425.32 124.53ZM426.88 123.954V124.53C426.88 124.789 426.941 125.029 427.061 125.249C427.186 125.469 427.404 125.579 427.717 125.579C428.043 125.579 428.265 125.469 428.382 125.249C428.503 125.029 428.564 124.789 428.564 124.53V123.954C428.564 123.695 428.507 123.454 428.393 123.23C428.279 123.006 428.054 122.894 427.717 122.894C427.401 122.894 427.182 123.008 427.061 123.235C426.941 123.463 426.88 123.702 426.88 123.954ZM426.023 132.818L433.523 121.909H434.918L427.418 132.818H426.023Z" fill="#0B0B0B"/>
</g>
<g filter="url(#filter4_b_2011_807)">
<rect x="514.324" y="267.857" width="62.8988" height="37.9767" rx="10" fill="#F3F3F3" fill-opacity="0.67"/>
<path d="M530.158 291.845V290.184L534.041 286.588C534.371 286.268 534.648 285.981 534.872 285.725C535.099 285.469 535.271 285.219 535.388 284.974C535.506 284.725 535.564 284.457 535.564 284.17C535.564 283.85 535.491 283.575 535.346 283.344C535.2 283.11 535.001 282.93 534.749 282.806C534.497 282.678 534.211 282.614 533.892 282.614C533.558 282.614 533.267 282.682 533.018 282.817C532.77 282.952 532.578 283.145 532.443 283.397C532.308 283.649 532.24 283.95 532.24 284.298H530.051C530.051 283.584 530.213 282.964 530.536 282.438C530.859 281.913 531.312 281.506 531.894 281.219C532.477 280.931 533.148 280.787 533.908 280.787C534.689 280.787 535.369 280.926 535.948 281.203C536.53 281.476 536.983 281.856 537.306 282.343C537.629 282.829 537.791 283.387 537.791 284.015C537.791 284.427 537.709 284.834 537.546 285.235C537.386 285.636 537.1 286.082 536.688 286.572C536.276 287.059 535.696 287.643 534.946 288.325L533.354 289.885V289.96H537.935V291.845H530.158ZM543.59 291.995C542.837 291.995 542.166 291.856 541.577 291.579C540.991 291.302 540.526 290.92 540.181 290.434C539.837 289.947 539.657 289.39 539.643 288.761H541.88C541.905 289.184 542.083 289.527 542.413 289.789C542.743 290.052 543.136 290.184 543.59 290.184C543.953 290.184 544.272 290.104 544.549 289.944C544.83 289.78 545.048 289.555 545.204 289.267C545.364 288.976 545.444 288.642 545.444 288.266C545.444 287.882 545.362 287.545 545.199 287.254C545.039 286.963 544.817 286.735 544.533 286.572C544.249 286.409 543.924 286.325 543.558 286.322C543.239 286.322 542.928 286.387 542.626 286.519C542.328 286.65 542.095 286.829 541.928 287.057L539.878 286.689L540.394 280.936H547.063V282.822H542.296L542.014 285.555H542.078C542.269 285.285 542.559 285.061 542.946 284.883C543.333 284.706 543.766 284.617 544.245 284.617C544.902 284.617 545.488 284.772 546.003 285.081C546.518 285.389 546.925 285.814 547.223 286.354C547.521 286.89 547.669 287.508 547.665 288.207C547.669 288.942 547.498 289.596 547.154 290.168C546.813 290.736 546.335 291.183 545.721 291.51C545.11 291.833 544.4 291.995 543.59 291.995ZM555.245 289.8V289.225C555.245 288.788 555.337 288.387 555.522 288.021C555.71 287.652 555.982 287.357 556.337 287.137C556.696 286.913 557.133 286.801 557.647 286.801C558.169 286.801 558.608 286.911 558.963 287.131C559.322 287.351 559.592 287.646 559.773 288.016C559.957 288.381 560.05 288.784 560.05 289.225V289.8C560.05 290.237 559.957 290.64 559.773 291.009C559.588 291.375 559.316 291.668 558.958 291.888C558.599 292.112 558.162 292.224 557.647 292.224C557.125 292.224 556.687 292.112 556.332 291.888C555.977 291.668 555.707 291.375 555.522 291.009C555.337 290.64 555.245 290.237 555.245 289.8ZM556.795 289.225V289.8C556.795 290.052 556.856 290.29 556.976 290.514C557.101 290.738 557.324 290.849 557.647 290.849C557.971 290.849 558.191 290.739 558.308 290.519C558.429 290.299 558.489 290.059 558.489 289.8V289.225C558.489 288.965 558.432 288.724 558.319 288.5C558.205 288.277 557.981 288.165 557.647 288.165C557.328 288.165 557.106 288.277 556.982 288.5C556.857 288.724 556.795 288.965 556.795 289.225ZM549.647 283.557V282.982C549.647 282.541 549.741 282.138 549.929 281.773C550.117 281.403 550.389 281.109 550.744 280.888C551.103 280.668 551.536 280.558 552.044 280.558C552.569 280.558 553.01 280.668 553.365 280.888C553.72 281.109 553.99 281.403 554.174 281.773C554.359 282.138 554.451 282.541 554.451 282.982V283.557C554.451 283.997 554.357 284.401 554.169 284.766C553.984 285.132 553.713 285.425 553.354 285.645C552.999 285.862 552.562 285.97 552.044 285.97C551.525 285.97 551.087 285.86 550.728 285.64C550.373 285.416 550.103 285.123 549.918 284.761C549.737 284.395 549.647 283.994 549.647 283.557ZM551.207 282.982V283.557C551.207 283.816 551.268 284.056 551.389 284.276C551.513 284.496 551.731 284.606 552.044 284.606C552.37 284.606 552.592 284.496 552.71 284.276C552.83 284.056 552.891 283.816 552.891 283.557V282.982C552.891 282.723 552.834 282.481 552.72 282.257C552.607 282.034 552.381 281.922 552.044 281.922C551.728 281.922 551.509 282.035 551.389 282.263C551.268 282.49 551.207 282.73 551.207 282.982ZM550.35 291.845L557.85 280.936H559.245L551.745 291.845H550.35Z" fill="#0B0B0B"/>
</g>
<g filter="url(#filter5_b_2011_807)">
<rect x="405.875" y="467.235" width="62.8988" height="37.9767" rx="10" fill="#F3F3F3" fill-opacity="0.67"/>
<path d="M430.693 491.372C429.94 491.372 429.269 491.234 428.679 490.957C428.093 490.68 427.628 490.298 427.284 489.811C426.939 489.325 426.76 488.767 426.746 488.139H428.983C429.008 488.561 429.185 488.904 429.516 489.167C429.846 489.43 430.238 489.561 430.693 489.561C431.055 489.561 431.375 489.481 431.652 489.321C431.932 489.158 432.151 488.932 432.307 488.645C432.467 488.354 432.547 488.02 432.547 487.643C432.547 487.26 432.465 486.922 432.301 486.631C432.142 486.34 431.92 486.113 431.636 485.949C431.352 485.786 431.027 485.703 430.661 485.699C430.341 485.699 430.031 485.765 429.729 485.896C429.43 486.028 429.198 486.207 429.031 486.434L426.98 486.067L427.497 480.314H434.166V482.199H429.398L429.116 484.932H429.18C429.372 484.662 429.661 484.438 430.048 484.261C430.435 484.083 430.869 483.995 431.348 483.995C432.005 483.995 432.591 484.149 433.106 484.458C433.621 484.767 434.027 485.191 434.326 485.731C434.624 486.267 434.771 486.885 434.768 487.585C434.771 488.32 434.601 488.973 434.256 489.545C433.915 490.113 433.438 490.561 432.824 490.887C432.213 491.21 431.502 491.372 430.693 491.372ZM442.348 489.177V488.602C442.348 488.165 442.44 487.764 442.625 487.398C442.813 487.029 443.085 486.734 443.44 486.514C443.798 486.29 444.235 486.179 444.75 486.179C445.272 486.179 445.711 486.289 446.066 486.509C446.424 486.729 446.694 487.024 446.875 487.393C447.06 487.759 447.152 488.162 447.152 488.602V489.177C447.152 489.614 447.06 490.017 446.875 490.387C446.691 490.752 446.419 491.045 446.06 491.266C445.702 491.489 445.265 491.601 444.75 491.601C444.228 491.601 443.789 491.489 443.434 491.266C443.079 491.045 442.809 490.752 442.625 490.387C442.44 490.017 442.348 489.614 442.348 489.177ZM443.898 488.602V489.177C443.898 489.43 443.958 489.668 444.079 489.891C444.203 490.115 444.427 490.227 444.75 490.227C445.073 490.227 445.293 490.117 445.411 489.897C445.531 489.676 445.592 489.437 445.592 489.177V488.602C445.592 488.343 445.535 488.101 445.421 487.878C445.308 487.654 445.084 487.542 444.75 487.542C444.43 487.542 444.208 487.654 444.084 487.878C443.96 488.101 443.898 488.343 443.898 488.602ZM436.749 482.935V482.359C436.749 481.919 436.843 481.516 437.032 481.15C437.22 480.781 437.491 480.486 437.847 480.266C438.205 480.046 438.638 479.936 439.146 479.936C439.672 479.936 440.112 480.046 440.467 480.266C440.822 480.486 441.092 480.781 441.277 481.15C441.462 481.516 441.554 481.919 441.554 482.359V482.935C441.554 483.375 441.46 483.778 441.272 484.144C441.087 484.509 440.815 484.802 440.457 485.023C440.102 485.239 439.665 485.348 439.146 485.348C438.628 485.348 438.189 485.237 437.831 485.017C437.475 484.794 437.206 484.501 437.021 484.138C436.84 483.773 436.749 483.371 436.749 482.935ZM438.31 482.359V482.935C438.31 483.194 438.37 483.433 438.491 483.654C438.615 483.874 438.834 483.984 439.146 483.984C439.473 483.984 439.695 483.874 439.812 483.654C439.933 483.433 439.993 483.194 439.993 482.935V482.359C439.993 482.1 439.936 481.859 439.823 481.635C439.709 481.411 439.484 481.299 439.146 481.299C438.83 481.299 438.612 481.413 438.491 481.64C438.37 481.867 438.31 482.107 438.31 482.359ZM437.452 491.223L444.952 480.314H446.348L438.848 491.223H437.452Z" fill="#0B0B0B"/>
</g>
<g filter="url(#filter6_b_2011_807)">
<rect x="272.957" y="517.277" width="62.8988" height="37.9767" rx="10" fill="#F3F3F3" fill-opacity="0.67"/>
<path d="M295.037 530.357V541.266H292.73V532.546H292.666L290.168 534.112V532.066L292.869 530.357H295.037ZM301.614 541.415C300.861 541.415 300.19 541.276 299.6 540.999C299.014 540.722 298.549 540.341 298.205 539.854C297.86 539.368 297.681 538.81 297.667 538.181H299.904C299.929 538.604 300.106 538.947 300.437 539.21C300.767 539.472 301.159 539.604 301.614 539.604C301.976 539.604 302.296 539.524 302.573 539.364C302.853 539.201 303.071 538.975 303.228 538.688C303.388 538.396 303.467 538.062 303.467 537.686C303.467 537.303 303.386 536.965 303.222 536.674C303.063 536.383 302.841 536.156 302.557 535.992C302.272 535.829 301.948 535.745 301.582 535.742C301.262 535.742 300.951 535.808 300.65 535.939C300.351 536.07 300.119 536.25 299.952 536.477L297.901 536.109L298.418 530.357H305.087V532.242H300.319L300.037 534.975H300.101C300.293 534.705 300.582 534.481 300.969 534.304C301.356 534.126 301.79 534.037 302.269 534.037C302.926 534.037 303.512 534.192 304.027 534.501C304.542 534.81 304.948 535.234 305.247 535.774C305.545 536.31 305.692 536.928 305.689 537.627C305.692 538.363 305.522 539.016 305.177 539.588C304.836 540.156 304.359 540.603 303.744 540.93C303.134 541.253 302.423 541.415 301.614 541.415ZM313.269 539.22V538.645C313.269 538.208 313.361 537.807 313.546 537.441C313.734 537.072 314.005 536.777 314.361 536.557C314.719 536.333 315.156 536.221 315.671 536.221C316.193 536.221 316.631 536.331 316.987 536.551C317.345 536.772 317.615 537.066 317.796 537.436C317.981 537.801 318.073 538.205 318.073 538.645V539.22C318.073 539.657 317.981 540.06 317.796 540.429C317.612 540.795 317.34 541.088 316.981 541.308C316.623 541.532 316.186 541.644 315.671 541.644C315.149 541.644 314.71 541.532 314.355 541.308C314 541.088 313.73 540.795 313.546 540.429C313.361 540.06 313.269 539.657 313.269 539.22ZM314.819 538.645V539.22C314.819 539.472 314.879 539.71 315 539.934C315.124 540.158 315.348 540.27 315.671 540.27C315.994 540.27 316.214 540.159 316.331 539.939C316.452 539.719 316.513 539.479 316.513 539.22V538.645C316.513 538.386 316.456 538.144 316.342 537.92C316.228 537.697 316.005 537.585 315.671 537.585C315.351 537.585 315.129 537.697 315.005 537.92C314.881 538.144 314.819 538.386 314.819 538.645ZM307.67 532.977V532.402C307.67 531.962 307.764 531.559 307.953 531.193C308.141 530.824 308.412 530.529 308.767 530.309C309.126 530.088 309.559 529.978 310.067 529.978C310.593 529.978 311.033 530.088 311.388 530.309C311.743 530.529 312.013 530.824 312.198 531.193C312.383 531.559 312.475 531.962 312.475 532.402V532.977C312.475 533.418 312.381 533.821 312.193 534.186C312.008 534.552 311.736 534.845 311.378 535.065C311.022 535.282 310.586 535.39 310.067 535.39C309.549 535.39 309.11 535.28 308.752 535.06C308.396 534.836 308.127 534.543 307.942 534.181C307.761 533.815 307.67 533.414 307.67 532.977ZM309.231 532.402V532.977C309.231 533.237 309.291 533.476 309.412 533.696C309.536 533.917 309.755 534.027 310.067 534.027C310.394 534.027 310.616 533.917 310.733 533.696C310.854 533.476 310.914 533.237 310.914 532.977V532.402C310.914 532.143 310.857 531.901 310.744 531.678C310.63 531.454 310.405 531.342 310.067 531.342C309.751 531.342 309.533 531.456 309.412 531.683C309.291 531.91 309.231 532.15 309.231 532.402ZM308.373 541.266L315.873 530.357H317.269L309.769 541.266H308.373Z" fill="#0B0B0B"/>
</g>
<g filter="url(#filter7_b_2011_807)">
<rect x="140.348" y="480.289" width="62.8988" height="37.9767" rx="10" fill="#F3F3F3" fill-opacity="0.67"/>
<path d="M161.927 493.368V504.277H159.621V495.558H159.557L157.059 497.124V495.078L159.759 493.368H161.927ZM168.797 504.517C167.881 504.513 167.093 504.288 166.432 503.841C165.775 503.393 165.269 502.745 164.914 501.896C164.563 501.048 164.389 500.027 164.392 498.833C164.392 497.644 164.568 496.63 164.919 495.792C165.275 494.954 165.781 494.316 166.438 493.88C167.098 493.439 167.885 493.219 168.797 493.219C169.71 493.219 170.495 493.439 171.152 493.88C171.812 494.32 172.32 494.959 172.675 495.797C173.03 496.632 173.206 497.644 173.203 498.833C173.203 500.03 173.025 501.053 172.67 501.902C172.318 502.75 171.814 503.398 171.157 503.846C170.5 504.293 169.714 504.517 168.797 504.517ZM168.797 502.605C169.422 502.605 169.921 502.29 170.294 501.662C170.667 501.033 170.852 500.091 170.848 498.833C170.848 498.006 170.763 497.317 170.592 496.767C170.426 496.216 170.188 495.803 169.879 495.526C169.573 495.249 169.213 495.11 168.797 495.11C168.176 495.11 167.679 495.421 167.306 496.042C166.933 496.664 166.745 497.594 166.741 498.833C166.741 499.672 166.825 500.371 166.992 500.932C167.162 501.49 167.402 501.909 167.711 502.189C168.02 502.466 168.382 502.605 168.797 502.605ZM180.818 502.232V501.657C180.818 501.22 180.911 500.819 181.095 500.453C181.284 500.083 181.555 499.789 181.91 499.569C182.269 499.345 182.706 499.233 183.221 499.233C183.743 499.233 184.181 499.343 184.536 499.563C184.895 499.783 185.165 500.078 185.346 500.447C185.531 500.813 185.623 501.216 185.623 501.657V502.232C185.623 502.669 185.531 503.072 185.346 503.441C185.161 503.807 184.89 504.1 184.531 504.32C184.172 504.544 183.736 504.656 183.221 504.656C182.699 504.656 182.26 504.544 181.905 504.32C181.55 504.1 181.28 503.807 181.095 503.441C180.911 503.072 180.818 502.669 180.818 502.232ZM182.368 501.657V502.232C182.368 502.484 182.429 502.722 182.55 502.946C182.674 503.169 182.898 503.281 183.221 503.281C183.544 503.281 183.764 503.171 183.881 502.951C184.002 502.731 184.062 502.491 184.062 502.232V501.657C184.062 501.397 184.006 501.156 183.892 500.932C183.778 500.708 183.555 500.597 183.221 500.597C182.901 500.597 182.679 500.708 182.555 500.932C182.431 501.156 182.368 501.397 182.368 501.657ZM175.22 495.989V495.414C175.22 494.973 175.314 494.57 175.502 494.205C175.691 493.835 175.962 493.54 176.317 493.32C176.676 493.1 177.109 492.99 177.617 492.99C178.143 492.99 178.583 493.1 178.938 493.32C179.293 493.54 179.563 493.835 179.748 494.205C179.932 494.57 180.025 494.973 180.025 495.414V495.989C180.025 496.429 179.931 496.832 179.742 497.198C179.558 497.564 179.286 497.857 178.927 498.077C178.572 498.294 178.135 498.402 177.617 498.402C177.099 498.402 176.66 498.292 176.301 498.072C175.946 497.848 175.676 497.555 175.492 497.193C175.311 496.827 175.22 496.426 175.22 495.989ZM176.781 495.414V495.989C176.781 496.248 176.841 496.488 176.962 496.708C177.086 496.928 177.305 497.038 177.617 497.038C177.944 497.038 178.166 496.928 178.283 496.708C178.404 496.488 178.464 496.248 178.464 495.989V495.414C178.464 495.154 178.407 494.913 178.294 494.689C178.18 494.466 177.954 494.354 177.617 494.354C177.301 494.354 177.083 494.467 176.962 494.695C176.841 494.922 176.781 495.162 176.781 495.414ZM175.923 504.277L183.423 493.368H184.819L177.319 504.277H175.923Z" fill="#0B0B0B"/>
</g>
<g filter="url(#filter8_b_2011_807)">
<rect x="53.4043" y="229.88" width="62.8988" height="37.9767" rx="10" fill="#F3F3F3" fill-opacity="0.67"/>
<path d="M69.2377 253.869V252.207L73.1209 248.611C73.4512 248.292 73.7282 248.004 73.9519 247.748C74.1792 247.493 74.3514 247.242 74.4686 246.997C74.5858 246.749 74.6444 246.481 74.6444 246.193C74.6444 245.873 74.5716 245.598 74.426 245.367C74.2804 245.133 74.0815 244.954 73.8294 244.829C73.5772 244.701 73.2914 244.637 72.9718 244.637C72.638 244.637 72.3468 244.705 72.0982 244.84C71.8496 244.975 71.6578 245.168 71.5229 245.42C71.388 245.673 71.3205 245.973 71.3205 246.321H69.1312C69.1312 245.607 69.2928 244.987 69.6159 244.462C69.9391 243.936 70.3919 243.53 70.9743 243.242C71.5566 242.954 72.2278 242.81 72.9877 242.81C73.769 242.81 74.449 242.949 75.0279 243.226C75.6103 243.499 76.063 243.879 76.3862 244.366C76.7093 244.852 76.8709 245.41 76.8709 246.038C76.8709 246.45 76.7892 246.857 76.6259 247.258C76.4661 247.659 76.1802 248.105 75.7683 248.595C75.3564 249.082 74.7757 249.666 74.0265 250.348L72.4338 251.908V251.983H77.0147V253.869H69.2377ZM82.6704 254.018C81.9175 254.018 81.2464 253.879 80.6569 253.602C80.0709 253.325 79.6057 252.944 79.2613 252.457C78.9168 251.971 78.7375 251.413 78.7233 250.784H80.9605C80.9854 251.207 81.1629 251.55 81.4932 251.813C81.8234 252.075 82.2158 252.207 82.6704 252.207C83.0326 252.207 83.3522 252.127 83.6292 251.967C83.9097 251.804 84.1281 251.578 84.2844 251.291C84.4442 250.999 84.5241 250.666 84.5241 250.289C84.5241 249.906 84.4424 249.568 84.279 249.277C84.1192 248.986 83.8973 248.759 83.6132 248.595C83.3291 248.432 83.0042 248.348 82.6384 248.345C82.3188 248.345 82.0081 248.411 81.7062 248.542C81.4079 248.673 81.1753 248.853 81.0084 249.08L78.9577 248.712L79.4743 242.96H86.1434V244.845H81.376L81.0937 247.578H81.1576C81.3493 247.308 81.6388 247.084 82.0258 246.907C82.4129 246.729 82.8461 246.64 83.3256 246.64C83.9825 246.64 84.5684 246.795 85.0834 247.104C85.5983 247.413 86.0049 247.837 86.3032 248.377C86.6015 248.913 86.7488 249.531 86.7453 250.231C86.7488 250.966 86.5784 251.619 86.2339 252.191C85.893 252.759 85.4154 253.206 84.801 253.533C84.1903 253.856 83.48 254.018 82.6704 254.018ZM94.3252 251.823V251.248C94.3252 250.811 94.4175 250.41 94.6022 250.044C94.7904 249.675 95.0621 249.38 95.4172 249.16C95.7758 248.936 96.2126 248.824 96.7275 248.824C97.2496 248.824 97.6881 248.934 98.0432 249.155C98.4019 249.375 98.6718 249.669 98.8529 250.039C99.0376 250.405 99.1299 250.808 99.1299 251.248V251.823C99.1299 252.26 99.0376 252.663 98.8529 253.032C98.6682 253.398 98.3966 253.691 98.0379 253.911C97.6792 254.135 97.2425 254.247 96.7275 254.247C96.2055 254.247 95.767 254.135 95.4118 253.911C95.0567 253.691 94.7868 253.398 94.6022 253.032C94.4175 252.663 94.3252 252.26 94.3252 251.823ZM95.8753 251.248V251.823C95.8753 252.075 95.9356 252.313 96.0564 252.537C96.1807 252.761 96.4044 252.873 96.7275 252.873C97.0507 252.873 97.2709 252.762 97.3881 252.542C97.5088 252.322 97.5692 252.082 97.5692 251.823V251.248C97.5692 250.989 97.5123 250.747 97.3987 250.523C97.2851 250.3 97.0613 250.188 96.7275 250.188C96.4079 250.188 96.186 250.3 96.0617 250.523C95.9374 250.747 95.8753 250.989 95.8753 251.248ZM88.7268 245.58V245.005C88.7268 244.565 88.8209 244.162 89.0091 243.796C89.1974 243.427 89.469 243.132 89.8241 242.912C90.1828 242.691 90.616 242.581 91.1238 242.581C91.6494 242.581 92.0898 242.691 92.4449 242.912C92.8 243.132 93.0699 243.427 93.2545 243.796C93.4392 244.162 93.5315 244.565 93.5315 245.005V245.58C93.5315 246.021 93.4374 246.424 93.2492 246.789C93.0645 247.155 92.7929 247.448 92.4342 247.668C92.0791 247.885 91.6423 247.993 91.1238 247.993C90.6054 247.993 90.1668 247.883 89.8081 247.663C89.453 247.439 89.1831 247.146 88.9985 246.784C88.8174 246.418 88.7268 246.017 88.7268 245.58ZM90.2876 245.005V245.58C90.2876 245.84 90.3479 246.079 90.4687 246.299C90.593 246.52 90.8113 246.63 91.1238 246.63C91.4506 246.63 91.6725 246.52 91.7897 246.299C91.9104 246.079 91.9708 245.84 91.9708 245.58V245.005C91.9708 244.746 91.914 244.504 91.8003 244.281C91.6867 244.057 91.4612 243.945 91.1238 243.945C90.8078 243.945 90.5894 244.059 90.4687 244.286C90.3479 244.513 90.2876 244.753 90.2876 245.005ZM89.43 253.869L96.93 242.96H98.3256L90.8256 253.869H89.43Z" fill="#0B0B0B"/>
</g>
<g filter="url(#filter9_b_2011_807)">
<rect x="265.836" y="61.3591" width="62.8988" height="37.9767" rx="10" fill="#F3F3F3" fill-opacity="0.67"/>
<path d="M287.415 74.4383V85.3474H285.109V76.6276H285.045L282.547 78.1936V76.1482L285.248 74.4383H287.415ZM294.286 85.5871C293.369 85.5836 292.581 85.3581 291.921 84.9106C291.264 84.4632 290.758 83.8151 290.402 82.9664C290.051 82.1177 289.877 81.0967 289.88 79.9035C289.88 78.7139 290.056 77.7 290.408 76.862C290.763 76.0239 291.269 75.3865 291.926 74.9497C292.586 74.5093 293.373 74.2892 294.286 74.2892C295.198 74.2892 295.983 74.5093 296.64 74.9497C297.301 75.39 297.808 76.0292 298.163 76.8673C298.519 77.7018 298.694 78.7139 298.691 79.9035C298.691 81.1003 298.513 82.123 298.158 82.9717C297.807 83.8204 297.302 84.4685 296.645 84.9159C295.988 85.3634 295.202 85.5871 294.286 85.5871ZM294.286 83.6748C294.911 83.6748 295.41 83.3606 295.782 82.732C296.155 82.1034 296.34 81.1606 296.336 79.9035C296.336 79.0761 296.251 78.3872 296.081 77.8368C295.914 77.2863 295.676 76.8726 295.367 76.5956C295.062 76.3186 294.701 76.1802 294.286 76.1802C293.664 76.1802 293.167 76.4909 292.794 77.1123C292.421 77.7338 292.233 78.6642 292.229 79.9035C292.229 80.7416 292.313 81.4412 292.48 82.0022C292.65 82.5598 292.89 82.9788 293.199 83.2593C293.508 83.5363 293.87 83.6748 294.286 83.6748ZM306.307 83.302V82.7267C306.307 82.2899 306.399 81.8886 306.584 81.5228C306.772 81.1535 307.044 80.8588 307.399 80.6386C307.757 80.4149 308.194 80.303 308.709 80.303C309.231 80.303 309.67 80.4131 310.025 80.6333C310.383 80.8534 310.653 81.1482 310.834 81.5175C311.019 81.8833 311.111 82.2863 311.111 82.7267V83.302C311.111 83.7387 311.019 84.1418 310.834 84.5111C310.65 84.8769 310.378 85.1699 310.019 85.39C309.661 85.6137 309.224 85.7256 308.709 85.7256C308.187 85.7256 307.748 85.6137 307.393 85.39C307.038 85.1699 306.768 84.8769 306.584 84.5111C306.399 84.1418 306.307 83.7387 306.307 83.302ZM307.857 82.7267V83.302C307.857 83.5541 307.917 83.792 308.038 84.0157C308.162 84.2395 308.386 84.3513 308.709 84.3513C309.032 84.3513 309.252 84.2412 309.369 84.0211C309.49 83.8009 309.551 83.5612 309.551 83.302V82.7267C309.551 82.4674 309.494 82.226 309.38 82.0022C309.267 81.7785 309.043 81.6667 308.709 81.6667C308.389 81.6667 308.167 81.7785 308.043 82.0022C307.919 82.226 307.857 82.4674 307.857 82.7267ZM300.708 77.0591V76.4838C300.708 76.0434 300.802 75.6404 300.991 75.2746C301.179 74.9053 301.45 74.6106 301.806 74.3904C302.164 74.1702 302.597 74.0601 303.105 74.0601C303.631 74.0601 304.071 74.1702 304.426 74.3904C304.781 74.6106 305.051 74.9053 305.236 75.2746C305.421 75.6404 305.513 76.0434 305.513 76.4838V77.0591C305.513 77.4994 305.419 77.9025 305.231 78.2682C305.046 78.634 304.774 78.927 304.416 79.1471C304.061 79.3637 303.624 79.4721 303.105 79.4721C302.587 79.4721 302.148 79.362 301.79 79.1418C301.434 78.9181 301.165 78.6251 300.98 78.2629C300.799 77.8971 300.708 77.4958 300.708 77.0591ZM302.269 76.4838V77.0591C302.269 77.3183 302.329 77.558 302.45 77.7782C302.574 77.9983 302.793 78.1084 303.105 78.1084C303.432 78.1084 303.654 77.9983 303.771 77.7782C303.892 77.558 303.952 77.3183 303.952 77.0591V76.4838C303.952 76.2245 303.895 75.9831 303.782 75.7593C303.668 75.5356 303.443 75.4238 303.105 75.4238C302.789 75.4238 302.571 75.5374 302.45 75.7647C302.329 75.9919 302.269 76.2316 302.269 76.4838ZM301.411 85.3474L308.911 74.4383H310.307L302.807 85.3474H301.411Z" fill="#0B0B0B"/>
</g>
<defs>
<filter id="filter0_d_2011_807" x="311.025" y="75.3716" width="245.865" height="431.735" filterUnits="userSpaceOnUse" color-interpolation-filters="sRGB">
<feFlood flood-opacity="0" result="BackgroundImageFix"/>
<feColorMatrix in="SourceAlpha" type="matrix" values="0 0 0 0 0 0 0 0 0 0 0 0 0 0 0 0 0 0 127 0" result="hardAlpha"/>
<feOffset dy="14"/>
<feGaussianBlur stdDeviation="14.5"/>
<feComposite in2="hardAlpha" operator="out"/>
<feColorMatrix type="matrix" values="0 0 0 0 0.968627 0 0 0 0 0.576471 0 0 0 0 0.101961 0 0 0 0.25 0"/>
<feBlend mode="normal" in2="BackgroundImageFix" result="effect1_dropShadow_2011_807"/>
<feBlend mode="normal" in="SourceGraphic" in2="effect1_dropShadow_2011_807" result="shape"/>
</filter>
<filter id="filter1_d_2011_807" x="54.3105" y="304.927" width="410.889" height="267.242" filterUnits="userSpaceOnUse" color-interpolation-filters="sRGB">
<feFlood flood-opacity="0" result="BackgroundImageFix"/>
<feColorMatrix in="SourceAlpha" type="matrix" values="0 0 0 0 0 0 0 0 0 0 0 0 0 0 0 0 0 0 127 0" result="hardAlpha"/>
<feOffset dy="14"/>
<feGaussianBlur stdDeviation="14.5"/>
<feComposite in2="hardAlpha" operator="out"/>
<feColorMatrix type="matrix" values="0 0 0 0 0 0 0 0 0 0 0 0 0 0 0 0 0 0 1 0"/>
<feBlend mode="normal" in2="BackgroundImageFix" result="effect1_dropShadow_2011_807"/>
<feBlend mode="normal" in="SourceGraphic" in2="effect1_dropShadow_2011_807" result="shape"/>
</filter>
<filter id="filter2_d_2011_807" x="53.1104" y="279.319" width="382.351" height="292.85" filterUnits="userSpaceOnUse" color-interpolation-filters="sRGB">
<feFlood flood-opacity="0" result="BackgroundImageFix"/>
<feColorMatrix in="SourceAlpha" type="matrix" values="0 0 0 0 0 0 0 0 0 0 0 0 0 0 0 0 0 0 127 0" result="hardAlpha"/>
<feOffset dy="14"/>
<feGaussianBlur stdDeviation="14.5"/>
<feComposite in2="hardAlpha" operator="out"/>
<feColorMatrix type="matrix" values="0 0 0 0 0.447059 0 0 0 0 0.945098 0 0 0 0 0.784314 0 0 0 0.15 0"/>
<feBlend mode="normal" in2="BackgroundImageFix" result="effect1_dropShadow_2011_807"/>
<feBlend mode="normal" in="SourceGraphic" in2="effect1_dropShadow_2011_807" result="shape"/>
</filter>
<filter id="filter3_b_2011_807" x="350.447" y="68.8298" width="142.898" height="117.977" filterUnits="userSpaceOnUse" color-interpolation-filters="sRGB">
<feFlood flood-opacity="0" result="BackgroundImageFix"/>
<feGaussianBlur in="BackgroundImageFix" stdDeviation="20"/>
<feComposite in2="SourceAlpha" operator="in" result="effect1_backgroundBlur_2011_807"/>
<feBlend mode="normal" in="SourceGraphic" in2="effect1_backgroundBlur_2011_807" result="shape"/>
</filter>
<filter id="filter4_b_2011_807" x="474.324" y="227.857" width="142.898" height="117.977" filterUnits="userSpaceOnUse" color-interpolation-filters="sRGB">
<feFlood flood-opacity="0" result="BackgroundImageFix"/>
<feGaussianBlur in="BackgroundImageFix" stdDeviation="20"/>
<feComposite in2="SourceAlpha" operator="in" result="effect1_backgroundBlur_2011_807"/>
<feBlend mode="normal" in="SourceGraphic" in2="effect1_backgroundBlur_2011_807" result="shape"/>
</filter>
<filter id="filter5_b_2011_807" x="365.875" y="427.235" width="142.898" height="117.977" filterUnits="userSpaceOnUse" color-interpolation-filters="sRGB">
<feFlood flood-opacity="0" result="BackgroundImageFix"/>
<feGaussianBlur in="BackgroundImageFix" stdDeviation="20"/>
<feComposite in2="SourceAlpha" operator="in" result="effect1_backgroundBlur_2011_807"/>
<feBlend mode="normal" in="SourceGraphic" in2="effect1_backgroundBlur_2011_807" result="shape"/>
</filter>
<filter id="filter6_b_2011_807" x="232.957" y="477.277" width="142.898" height="117.977" filterUnits="userSpaceOnUse" color-interpolation-filters="sRGB">
<feFlood flood-opacity="0" result="BackgroundImageFix"/>
<feGaussianBlur in="BackgroundImageFix" stdDeviation="20"/>
<feComposite in2="SourceAlpha" operator="in" result="effect1_backgroundBlur_2011_807"/>
<feBlend mode="normal" in="SourceGraphic" in2="effect1_backgroundBlur_2011_807" result="shape"/>
</filter>
<filter id="filter7_b_2011_807" x="100.348" y="440.289" width="142.898" height="117.977" filterUnits="userSpaceOnUse" color-interpolation-filters="sRGB">
<feFlood flood-opacity="0" result="BackgroundImageFix"/>
<feGaussianBlur in="BackgroundImageFix" stdDeviation="20"/>
<feComposite in2="SourceAlpha" operator="in" result="effect1_backgroundBlur_2011_807"/>
<feBlend mode="normal" in="SourceGraphic" in2="effect1_backgroundBlur_2011_807" result="shape"/>
</filter>
<filter id="filter8_b_2011_807" x="13.4043" y="189.88" width="142.898" height="117.977" filterUnits="userSpaceOnUse" color-interpolation-filters="sRGB">
<feFlood flood-opacity="0" result="BackgroundImageFix"/>
<feGaussianBlur in="BackgroundImageFix" stdDeviation="20"/>
<feComposite in2="SourceAlpha" operator="in" result="effect1_backgroundBlur_2011_807"/>
<feBlend mode="normal" in="SourceGraphic" in2="effect1_backgroundBlur_2011_807" result="shape"/>
</filter>
<filter id="filter9_b_2011_807" x="225.836" y="21.3591" width="142.898" height="117.977" filterUnits="userSpaceOnUse" color-interpolation-filters="sRGB">
<feFlood flood-opacity="0" result="BackgroundImageFix"/>
<feGaussianBlur in="BackgroundImageFix" stdDeviation="20"/>
<feComposite in2="SourceAlpha" operator="in" result="effect1_backgroundBlur_2011_807"/>
<feBlend mode="normal" in="SourceGraphic" in2="effect1_backgroundBlur_2011_807" result="shape"/>
</filter>
</defs>
</svg>
