<svg xmlns="http://www.w3.org/2000/svg" viewBox="0 0 33.18 33.18"><title>instagram</title><g id="Layer_2" data-name="Layer 2"><g id="ELEMENTS"><path d="M16.67,13.42a3.17,3.17,0,1,0,3.17,3.17A3.17,3.17,0,0,0,16.67,13.42Z"/><path d="M20.6,8.42h-8a4.16,4.16,0,0,0-4.14,4.15v8a4.15,4.15,0,0,0,4.14,4.15h8a4.15,4.15,0,0,0,4.15-4.15v-8A4.16,4.16,0,0,0,20.6,8.42ZM16.67,21.54a4.95,4.95,0,1,1,4.95-4.95A5,5,0,0,1,16.67,21.54Zm5.24-9.06a1.18,1.18,0,1,1,1.18-1.18A1.18,1.18,0,0,1,21.91,12.48Z"/><path d="M16.59,0A16.59,16.59,0,1,0,33.18,16.59,16.59,16.59,0,0,0,16.59,0ZM26.64,20.6a6,6,0,0,1-6,6h-8a6,6,0,0,1-6-6v-8a6,6,0,0,1,6-6h8a6,6,0,0,1,6,6Z"/></g></g></svg>