<svg xmlns="http://www.w3.org/2000/svg" xmlns:xlink="http://www.w3.org/1999/xlink" viewBox="0 0 1649.42 240.36"><defs><style>.cls-1{fill:url(#linear-gradient);}.cls-2{fill:url(#linear-gradient-2);}</style><linearGradient id="linear-gradient" y1="-3231.64" x2="240.33" y2="-3231.64" gradientTransform="matrix(1, 0, 0, -1, 0, -3111.46)" gradientUnits="userSpaceOnUse"><stop offset="0" stop-color="#57b597"/><stop offset="0.25" stop-color="#72f1c8"/><stop offset="0.5" stop-color="#fff"/><stop offset="0.8" stop-color="#60aaf5"/><stop offset="1" stop-color="#759df8"/></linearGradient><linearGradient id="linear-gradient-2" x1="372.58" y1="114.71" x2="1649.42" y2="114.71" gradientUnits="userSpaceOnUse"><stop offset="0.01" stop-color="#0f0f0f"/><stop offset="0.18" stop-color="#232323"/><stop offset="0.39" stop-color="#262626"/><stop offset="0.51" stop-color="#2e2e2e"/><stop offset="0.6" stop-color="#3a3a3a"/><stop offset="0.81" stop-color="#2b2b2b"/><stop offset="1" stop-color="#232323"/></linearGradient></defs><title>oxana logo3</title><g id="Layer_2" data-name="Layer 2"><g id="Layer_1-2" data-name="Layer 1"><path class="cls-1" d="M157.64,120.18l74.93-74.94a26.5,26.5,0,0,0,0-37.48h0a26.51,26.51,0,0,0-37.47,0L93.19,109.68,18.26,34.75A11.66,11.66,0,0,1,34.75,18.26L93,76.53,45.25,7.77a26.5,26.5,0,0,0-37.47,0v0a26.5,26.5,0,0,0,0,37.47L82.7,120.18,7.76,195.12a26.49,26.49,0,0,0,0,37.47h0a26.49,26.49,0,0,0,37.48,0l101.91-101.9,74.92,74.92a11.66,11.66,0,0,1-16.49,16.49l-58.26-58.27,47.77,68.76a26.5,26.5,0,1,0,37.48-37.47Zm-21,0L34.75,222.1a11.66,11.66,0,0,1-16.49-16.49l85.43-85.43h0L205.59,18.26a11.66,11.66,0,1,1,16.62,16.35l-.13.14-85.43,85.43Z"/><path class="cls-2" d="M422.28,38.93h.07c.81,0,1.64,0,2.47,0l67.64.19L560.09,39c.83,0,1.65,0,2.47,0h0c15,0,27.8,6,36,14.6a46.89,46.89,0,0,1,12.6,31.2c0,7.4.05,16.52.05,25.32v34a42,42,0,0,1-12.8,31.2c-9,8.6-22.4,13.2-38.2,12.8l.4,0L491.84,188l-68.77.09.41,0-2.09,0c-14.8,0-27.4-4.6-36-12.79a42,42,0,0,1-12.8-31.21V84.87a46.89,46.89,0,0,1,12.6-31.2c8.2-8.6,21-14.6,36-14.6Zm1.54,29.51c-1.13,0-2.2,0-3.18,0h0c-6.8.2-10.2,2.4-13,5.2a18.8,18.8,0,0,0-4.8,12v60.49a10.46,10.46,0,0,0,3.4,8c2.6,2.4,7.2,4.8,16.8,4.6h.18l56.69-.07v0h24.7v0l56.68.07h.18c9.6.2,14.2-2.2,16.8-4.6a10.46,10.46,0,0,0,3.4-8V85.62a18.8,18.8,0,0,0-4.8-12c-2.8-2.8-6.2-5-13-5.2h0c-1,0-2,0-3.19,0l-.3,0-55.66.16v0l-12.36,0-12.37,0v0l-55.66-.16-.3,0Z"/><path class="cls-2" d="M722.18,117.32,626.94,40.16h48.28l71.1,58.9,71.1-58.9H865.7l-95.24,77.16L865,188.84H816.74l-70.42-53.26-70.41,53.26H627.64l94.54-71.52Z"/><path class="cls-2" d="M984.59,41.2l38.38.09,110.46,148.54h-36.74L1008.12,70.75l-8.42,0L914.25,189.84H878Z"/><path class="cls-2" d="M1147.54,41.1l42.73.11L1345.84,161h3.76q-.43-59.78-.86-119.56l29.48-.22,1.08,149.31-42.6-.05L1181.12,70.67H1177L1176.91,190h-29.49Z"/><path class="cls-2" d="M1500.59,41.2l38.38.09,110.45,148.54h-36.73q-44.3-59.54-88.57-119.08l-8.43,0-85.44,119.12H1394Z"/></g></g></svg>