<svg width="311" height="218" viewBox="0 0 311 218" fill="none" xmlns="http://www.w3.org/2000/svg">
<path d="M174.989 63.3342L213.963 24.3626C219.346 18.9807 219.346 10.2537 213.963 4.87177C208.581 -0.510105 199.853 -0.510105 194.471 4.87177L141.468 57.8716L102.5 18.906C101.378 17.7657 100.752 16.2283 100.758 14.6287C100.765 13.0292 101.403 11.497 102.534 10.3658C103.665 9.23466 105.198 8.59617 106.797 8.5894C108.397 8.58263 109.935 9.20813 111.075 10.3297L141.38 40.6349L116.534 4.87244C115.255 3.59207 113.735 2.57637 112.063 1.8834C110.39 1.19042 108.598 0.83374 106.787 0.83374C104.977 0.83374 103.185 1.19042 101.512 1.8834C99.8397 2.57637 98.3202 3.59207 97.0405 4.87244C91.6575 10.2543 91.6575 18.9814 97.0378 24.3626L136.015 63.3342L97.0378 102.306C95.7577 103.585 94.7422 105.105 94.0494 106.777C93.3566 108.449 93 110.241 93 112.051C93 113.861 93.3566 115.653 94.0494 117.326C94.7422 118.998 95.7577 120.517 97.0378 121.797C102.422 127.178 111.149 127.18 116.532 121.797L169.536 68.8001L208.502 107.763C209.64 108.9 210.279 110.443 210.279 112.051C210.279 113.66 209.64 115.202 208.502 116.339C207.365 117.477 205.822 118.116 204.214 118.116C202.605 118.116 201.062 117.477 199.925 116.339L169.624 86.0374L194.469 121.797C197.054 124.381 200.56 125.833 204.216 125.833C207.871 125.833 211.377 124.381 213.962 121.797C219.346 116.415 219.346 107.688 213.962 102.306L174.989 63.3342ZM164.079 63.3435L111.075 116.339C109.935 117.461 108.397 118.086 106.797 118.08C105.198 118.073 103.665 117.434 102.534 116.303C101.403 115.172 100.765 113.64 100.758 112.04C100.752 110.441 101.378 108.903 102.5 107.763L146.932 63.3342L146.926 63.3288L199.928 10.3297C200.49 9.75893 201.159 9.30501 201.897 8.99409C202.634 8.68317 203.427 8.52141 204.227 8.51815C205.028 8.51489 205.821 8.67018 206.562 8.97507C207.302 9.27997 207.974 9.72843 208.541 10.2946C209.107 10.8607 209.555 11.5334 209.86 12.2737C210.165 13.014 210.32 13.8073 210.317 14.6079C210.313 15.4085 210.151 16.2005 209.84 16.9382C209.529 17.6759 209.075 18.3447 208.504 18.906L164.072 63.3342L164.079 63.3435Z" fill="url(#paint0_linear_2011_909)"/>
<path d="M13.776 162.594L14.064 162.546C14.256 162.546 14.448 162.546 14.64 162.546C20.064 162.594 25.488 162.594 30.912 162.594C36.288 162.594 41.712 162.594 47.136 162.546C47.328 162.546 47.52 162.546 47.712 162.546C51.312 162.546 54.384 163.986 56.352 166.05C58.416 168.258 59.328 170.994 59.376 173.538C59.376 175.314 59.376 177.522 59.376 179.634C59.376 183.858 59.376 187.794 59.376 187.794C59.424 190.434 58.464 193.218 56.304 195.282C54.144 197.346 50.928 198.45 47.136 198.354C47.184 198.354 47.232 198.354 47.232 198.354C41.76 198.354 36.24 198.354 30.72 198.354C25.248 198.354 19.728 198.354 14.256 198.354C14.256 198.354 14.304 198.354 14.352 198.354C14.16 198.354 14.016 198.354 13.824 198.354C10.272 198.354 7.248 197.25 5.184 195.282C3.024 193.218 2.064 190.434 2.112 187.794C2.112 187.794 2.112 183.858 2.112 179.634C2.112 177.522 2.112 175.362 2.112 173.586C2.16 171.042 3.072 168.306 5.136 166.098C7.104 164.034 10.176 162.594 13.776 162.594ZM14.496 169.65H14.4C14.16 169.65 13.872 169.65 13.632 169.65H13.68C12.048 169.698 11.232 170.226 10.56 170.898C9.792 171.714 9.408 172.914 9.408 173.778V173.826C9.408 178.626 9.408 183.474 9.408 188.274C9.408 188.994 9.648 189.666 10.224 190.194C10.848 190.77 11.952 191.346 14.256 191.298C14.256 191.298 14.256 191.298 14.304 191.298C18.816 191.298 23.328 191.298 27.888 191.298C28.896 191.298 29.856 191.298 30.864 191.298C31.824 191.298 32.832 191.298 33.792 191.298C38.352 191.298 42.864 191.298 47.424 191.298C47.424 191.298 47.424 191.298 47.472 191.298C49.776 191.346 50.88 190.77 51.504 190.194C52.08 189.666 52.32 188.994 52.32 188.274C52.32 183.474 52.32 178.626 52.32 173.826V173.778C52.32 172.914 51.936 171.714 51.168 170.898C50.496 170.226 49.68 169.698 48.048 169.65C47.808 169.65 47.568 169.65 47.28 169.65C47.232 169.65 47.232 169.65 47.184 169.65C42.768 169.65 38.304 169.65 33.84 169.698C32.832 169.698 31.872 169.698 30.864 169.698C29.904 169.698 28.896 169.698 27.888 169.698C23.472 169.65 19.008 169.65 14.544 169.65H14.496ZM86.0291 181.362C78.3971 175.218 70.8131 169.026 63.1811 162.834C67.0211 162.834 70.9091 162.834 74.7491 162.834C80.4611 167.586 86.1251 172.29 91.8371 176.994C97.5011 172.29 103.213 167.586 108.877 162.834C112.765 162.834 116.605 162.834 120.493 162.834C112.861 169.026 105.229 175.218 97.6451 181.362C105.181 187.074 112.765 192.834 120.301 198.546C116.461 198.546 112.573 198.546 108.733 198.546C103.117 194.274 97.4531 190.002 91.8371 185.778C86.1731 190.002 80.5571 194.274 74.9411 198.546C71.0531 198.546 67.2131 198.546 63.3251 198.546C70.9091 192.834 78.4931 187.074 86.0291 181.362ZM123.41 198.786C131.954 186.882 140.498 174.978 148.994 163.122C152.066 163.122 155.138 163.122 158.21 163.122C167.042 175.026 175.874 186.882 184.706 198.786C181.778 198.786 178.85 198.786 175.922 198.786C168.818 189.234 161.714 179.73 154.658 170.178C153.986 170.178 153.314 170.178 152.642 170.178C145.778 179.73 138.962 189.234 132.146 198.786C129.218 198.786 126.338 198.786 123.41 198.786ZM188.058 198.834C188.106 186.882 188.106 174.978 188.106 163.074C191.514 163.074 194.922 163.074 198.378 163.122C210.81 172.674 223.242 182.274 235.674 191.826C236.01 191.826 236.298 191.826 236.586 191.826C236.538 182.274 236.442 172.722 236.394 163.17C238.746 163.122 241.098 163.122 243.45 163.122C243.546 175.026 243.642 186.978 243.738 198.93C240.33 198.93 236.922 198.93 233.514 198.93C221.034 189.33 208.602 179.778 196.17 170.178C195.834 170.178 195.498 170.178 195.162 170.178C195.162 179.73 195.162 189.282 195.162 198.834C192.81 198.834 190.458 198.834 188.058 198.834ZM247.254 198.786C255.798 186.882 264.342 174.978 272.838 163.122C275.91 163.122 278.982 163.122 282.054 163.122C290.886 175.026 299.718 186.882 308.55 198.786C305.622 198.786 302.694 198.786 299.766 198.786C292.662 189.234 285.558 179.73 278.502 170.178C277.83 170.178 277.158 170.178 276.486 170.178C269.622 179.73 262.806 189.234 255.99 198.786C253.062 198.786 250.182 198.786 247.254 198.786Z" fill="url(#paint1_angular_2011_909)"/>
<defs>
<linearGradient id="paint0_linear_2011_909" x1="93.0027" y1="63.3335" x2="218" y2="63.3335" gradientUnits="userSpaceOnUse">
<stop stop-color="#57B597"/>
<stop offset="0.25" stop-color="#72F1C8"/>
<stop offset="0.5" stop-color="white"/>
<stop offset="0.8" stop-color="#60AAF5"/>
<stop offset="1" stop-color="#759DF8"/>
</linearGradient>
<radialGradient id="paint1_angular_2011_909" cx="0" cy="0" r="1" gradientUnits="userSpaceOnUse" gradientTransform="translate(230 271.834) rotate(-47.3718) scale(119.604 71.5314)">
<stop offset="0.727616" stop-color="white"/>
<stop offset="0.772914" stop-color="#CCCCCC"/>
<stop offset="0.847008" stop-color="white"/>
</radialGradient>
</defs>
</svg>
