<svg xmlns="http://www.w3.org/2000/svg" xmlns:xlink="http://www.w3.org/1999/xlink" viewBox="0 0 1276.84 1137.01"><defs><style>.cls-1{fill:url(#linear-gradient);}.cls-2{fill:url(#linear-gradient-2);}</style><linearGradient id="linear-gradient" x1="237.23" y1="1109.77" x2="1036.9" y2="1109.77" gradientTransform="matrix(1, 0, 0, -1, 0, 1509.64)" gradientUnits="userSpaceOnUse"><stop offset="0" stop-color="#57b597"/><stop offset="0.25" stop-color="#72f1c8"/><stop offset="0.5" stop-color="#fff"/><stop offset="0.8" stop-color="#60aaf5"/><stop offset="1" stop-color="#759df8"/></linearGradient><linearGradient id="linear-gradient-2" y1="1061.23" x2="1276.84" y2="1061.23" gradientUnits="userSpaceOnUse"><stop offset="0.01" stop-color="#eaeaea"/><stop offset="0.18" stop-color="#f7f7f7"/><stop offset="0.47" stop-color="#fafafa"/><stop offset="0.6" stop-color="#fff"/><stop offset="1" stop-color="#f7f7f7"/></linearGradient></defs><title>Oxana logo2_1</title><g id="Layer_2" data-name="Layer 2"><g id="Layer_1-2" data-name="Layer 1"><path class="cls-1" d="M761.74,399.87l249.33-249.33a88.17,88.17,0,0,0,0-124.7h0a88.17,88.17,0,0,0-124.7,0L547.3,364.92,298,115.62a38.8,38.8,0,0,1,54.87-54.87L546.73,254.64,387.79,25.84a88.15,88.15,0,0,0-124.67,0l0,0a88.19,88.19,0,0,0,0,124.7L512.41,399.87,263.06,649.21a88.17,88.17,0,0,0,0,124.68l0,0a88.18,88.18,0,0,0,124.71,0L726.86,434.84,976.14,684.13A38.8,38.8,0,0,1,921.27,739L727.42,545.13l159,228.78a88.18,88.18,0,0,0,124.7-124.7Zm-69.79.06L352.87,739A38.8,38.8,0,0,1,298,684.13L582.25,399.87l0,0L921.29,60.75a38.8,38.8,0,0,1,55.32,54.42l-.46.45L691.9,399.87Z"/><path class="cls-2" d="M49.7,985.45h.07c.81,0,1.63,0,2.46,0l67.64.19,67.64-.19c.83,0,1.65,0,2.46,0h0c15,0,27.8,6,36,14.6a46.89,46.89,0,0,1,12.6,31.2c0,7.4.05,16.53.05,25.33v34a42,42,0,0,1-12.8,31.2c-9,8.6-22.4,13.2-38.2,12.8l.41,0-68.77-.09-68.78.09.42,0c-.7,0-1.4,0-2.09,0-14.8,0-27.4-4.6-36-12.8A42,42,0,0,1,0,1090.61v-59.22a46.89,46.89,0,0,1,12.6-31.2c8.2-8.6,21-14.6,36-14.6ZM51.24,1015c-1.14,0-2.2,0-3.19,0h0c-6.8.2-10.2,2.4-13,5.2a18.8,18.8,0,0,0-4.8,12v60.48a10.46,10.46,0,0,0,3.4,8c2.6,2.4,7.2,4.8,16.8,4.6h.18l56.68-.07v0h24.7v0l56.69.07h.18c9.6.2,14.2-2.2,16.8-4.6a10.46,10.46,0,0,0,3.4-8v-60.48a18.8,18.8,0,0,0-4.8-12c-2.8-2.8-6.2-5-13-5.2h0c-1,0-2,0-3.19,0l-.3,0-55.66.16v.06l-12.37,0-12.36,0v-.06L51.78,1015l-.31,0Z"/><path class="cls-2" d="M254.35,986.68h48.28l71.1,58.91,71.1-58.91h48.29l-95.25,77.17,94.55,71.51H444.15l-70.42-53.26-70.41,53.26H255.05q47.28-35.74,94.54-71.51Q302,1025.25,254.35,986.68Z"/><path class="cls-2" d="M505.38,1136.36,612,987.72l38.38.09,110.45,148.55H724.1l-88.57-119.09-8.42,0-85.44,119.11Z"/><path class="cls-2" d="M775,987.62l42.73.11,155.56,119.75H977l-.86-119.56,29.49-.22q.52,74.65,1.08,149.31l-42.6,0L808.53,1017.19h-4.09l-.12,119.36H774.84Z"/><path class="cls-2" d="M1128,987.72l38.38.09q55.21,74.28,110.45,148.55H1240.1l-88.57-119.09-8.42,0q-42.72,59.55-85.45,119.11h-36.28Z"/></g></g></svg>