<svg xmlns="http://www.w3.org/2000/svg" viewBox="0 0 33.18 33.18"><title>share</title><g id="Layer_2" data-name="Layer 2"><g id="ELEMENTS"><path d="M16.59,0A16.59,16.59,0,1,0,33.18,16.59,16.59,16.59,0,0,0,16.59,0ZM24.5,10.79c-.05.67-.43,3-.82,5.56-.57,3.59-1.2,7.52-1.2,7.52s-.09,1.11-.91,1.3-2.15-.67-2.39-.86S15.58,22,14.33,21a.91.91,0,0,1,.05-1.53c1.73-1.59,3.79-3.55,5-4.8.57-.57,1.15-1.92-1.25-.29-3.4,2.35-6.76,4.56-6.76,4.56a2.83,2.83,0,0,1-2.21.05c-1.43-.43-3.11-1-3.11-1s-1.15-.72.81-1.49c0,0,8.3-3.4,11.17-4.6,1.11-.48,4.85-2,4.85-2S24.64,9.16,24.5,10.79Z"/></g></g></svg>