<svg xmlns="http://www.w3.org/2000/svg" viewBox="0 0 33.18 33.18"><defs><style>.cls-1{fill:#fff;}</style></defs><title>twitter white</title><g id="Layer_2" data-name="Layer 2"><g id="ELEMENTS"><path class="cls-1" d="M16.59,0A16.59,16.59,0,1,0,33.18,16.59,16.59,16.59,0,0,0,16.59,0ZM27.5,9.82a.61.61,0,0,1-.12.35A8.69,8.69,0,0,1,25.65,12c-.1.07-.27.15-.27.29,0,3.58-.91,7.16-3.52,9.75A13.1,13.1,0,0,1,9.12,25a12.22,12.22,0,0,1-2.47-1c-.26-.15-.51-.29-.77-.46-.06-.05-.11-.1,0-.13s.09,0,.29,0A8.73,8.73,0,0,0,9.81,23a5.68,5.68,0,0,0,2.42-1.29l0,0a3.93,3.93,0,0,0-.48-.06,4.8,4.8,0,0,1-3.56-3c0-.12,0-.18.13-.16A4.94,4.94,0,0,0,10,18.38a2.87,2.87,0,0,1-.57-.17,4.59,4.59,0,0,1-2.83-3.66,3,3,0,0,1,0-.51c0-.12.07-.15.17-.09a4.47,4.47,0,0,0,1.72.48A6.17,6.17,0,0,1,8,14,4.52,4.52,0,0,1,7.18,8.6c.09-.13.14-.13.25,0a13.91,13.91,0,0,0,8.94,4.55c.09,0,.1,0,.09-.11a4.71,4.71,0,0,1,0-1.87,4.51,4.51,0,0,1,.89-1.76,4.63,4.63,0,0,1,1.47-1.21,4.58,4.58,0,0,1,1.84-.52A4.41,4.41,0,0,1,22.63,8a4.79,4.79,0,0,1,1.26.77,2.66,2.66,0,0,1,.23.24.19.19,0,0,0,.18,0,11.52,11.52,0,0,0,2.6-1A.11.11,0,0,1,27,8s0,.07,0,.11a3.93,3.93,0,0,1-.73,1.33c-.21.26-.73.9-1.08,1a9.24,9.24,0,0,0,2.2-.63c.08,0,.09-.06.09,0Z"/></g></g></svg>