<svg width="20" height="16" viewBox="0 0 20 16" fill="none" xmlns="http://www.w3.org/2000/svg">
<path d="M9.99825 15.9998L0 6.13451L3.81497 0.000228882H16.185L20 6.13451L9.99825 15.9998ZM10.9981 7.00017V5.77985C12.7982 5.86968 14.4782 6.21968 14.9985 6.67467C14.393 7.20434 12.2289 7.58933 9.99825 7.58933C7.7676 7.58933 5.60345 7.20434 4.99796 6.67467C5.51362 6.21968 7.19827 5.87435 8.99842 5.77518V7.00017H10.9981ZM4.99796 6.67001V7.405C5.51362 7.86 7.19361 8.20533 8.99842 8.30449V10.9995H10.9981V8.29983C12.7982 8.20999 14.4829 7.86 14.9985 7.405V5.93968C14.4829 5.48468 12.7982 5.13469 10.9981 5.04019V3.99953H13.9987V2.50037H5.99895V3.99953H8.99842V5.04019C7.19361 5.13469 5.51362 5.48468 4.99796 5.93968V6.67001Z" fill="white"/>
</svg>
