<svg width="24" height="25" viewBox="0 0 24 25" fill="none" xmlns="http://www.w3.org/2000/svg">
<path d="M23.1771 0.351543L23.1531 0.353543H15.0851L7.5431 7.89554L16.4091 16.7625L24.0001 9.17254V1.15554C24.0003 1.04839 23.979 0.942287 23.9375 0.843487C23.896 0.744686 23.8352 0.655187 23.7586 0.580261C23.682 0.505335 23.5912 0.446499 23.4915 0.407218C23.3918 0.367938 23.2842 0.349008 23.1771 0.351543ZM1.9311 0.353543C1.77371 0.355211 1.62027 0.403101 1.48987 0.491258C1.35947 0.579415 1.25786 0.703953 1.19766 0.84939C1.13746 0.994826 1.12133 1.15475 1.15128 1.30928C1.18123 1.4638 1.25593 1.60612 1.3661 1.71854L6.8351 7.18854L13.6701 0.353543H1.9311ZM16.8241 2.67954C16.8943 2.67961 16.9637 2.69361 17.0284 2.72074C17.0932 2.74786 17.1518 2.78756 17.2011 2.83754L18.1391 3.77254C18.189 3.82225 18.2286 3.88131 18.2556 3.94635C18.2826 4.01139 18.2965 4.08112 18.2965 4.15154C18.2965 4.22197 18.2826 4.2917 18.2556 4.35674C18.2286 4.42177 18.189 4.48084 18.1391 4.53054L17.2011 5.46654C17.1516 5.51637 17.0927 5.55591 17.0278 5.5829C16.9629 5.60988 16.8934 5.62377 16.8231 5.62377C16.7528 5.62377 16.6833 5.60988 16.6184 5.5829C16.5535 5.55591 16.4946 5.51637 16.4451 5.46654L15.5081 4.53054C15.4582 4.48084 15.4186 4.42177 15.3916 4.35674C15.3646 4.2917 15.3507 4.22197 15.3507 4.15154C15.3507 4.08112 15.3646 4.01139 15.3916 3.94635C15.4186 3.88131 15.4582 3.82225 15.5081 3.77254L16.4451 2.83754C16.5459 2.73678 16.6825 2.67999 16.8251 2.67954M13.4431 6.06754C13.5801 6.06754 13.7171 6.11854 13.8221 6.22354L14.7571 7.16154C14.8069 7.21108 14.8465 7.26997 14.8735 7.33485C14.9004 7.39972 14.9143 7.46928 14.9143 7.53954C14.9143 7.6098 14.9004 7.67937 14.8735 7.74424C14.8465 7.80911 14.8069 7.86801 14.7571 7.91754L13.8221 8.85454C13.7724 8.90443 13.7133 8.94402 13.6483 8.97103C13.5833 8.99804 13.5135 9.01194 13.4431 9.01194C13.3727 9.01194 13.3029 8.99804 13.2379 8.97103C13.1729 8.94402 13.1138 8.90443 13.0641 8.85454L12.1281 7.91754C12.0783 7.86801 12.0387 7.80911 12.0117 7.74424C11.9848 7.67937 11.9709 7.6098 11.9709 7.53954C11.9709 7.46928 11.9848 7.39972 12.0117 7.33485C12.0387 7.26997 12.0783 7.21108 12.1281 7.16154L13.0641 6.22354C13.1138 6.17368 13.1728 6.13421 13.2379 6.10743C13.303 6.08064 13.3727 6.06708 13.4431 6.06754ZM20.2161 6.06954C20.3562 6.07181 20.49 6.12847 20.5891 6.22754L21.5191 7.15754C21.5693 7.20737 21.6092 7.26664 21.6364 7.33195C21.6636 7.39726 21.6776 7.4673 21.6776 7.53804C21.6776 7.60879 21.6636 7.67883 21.6364 7.74414C21.6092 7.80944 21.5693 7.86872 21.5191 7.91854L20.5891 8.84854C20.5393 8.89891 20.4799 8.9389 20.4145 8.96619C20.3491 8.99348 20.279 9.00753 20.2081 9.00753C20.1372 9.00753 20.0671 8.99348 20.0017 8.96619C19.9363 8.9389 19.8769 8.89891 19.8271 8.84854L18.8971 7.91854C18.8469 7.86872 18.807 7.80944 18.7798 7.74414C18.7526 7.67883 18.7386 7.60879 18.7386 7.53804C18.7386 7.4673 18.7526 7.39726 18.7798 7.33195C18.807 7.26664 18.8469 7.20737 18.8971 7.15754L19.8271 6.22754C19.8781 6.17657 19.9388 6.13632 20.0056 6.10919C20.0724 6.08205 20.144 6.06857 20.2161 6.06954ZM16.8301 9.44854C16.9003 9.44861 16.9697 9.46261 17.0344 9.48973C17.0992 9.51686 17.1579 9.55656 17.2071 9.60654L18.1451 10.5415C18.195 10.5912 18.2346 10.6503 18.2616 10.7154C18.2886 10.7804 18.3025 10.8501 18.3025 10.9205C18.3025 10.991 18.2886 11.0607 18.2616 11.1257C18.2346 11.1908 18.195 11.2498 18.1451 11.2995L17.2071 12.2365C17.1576 12.2864 17.0987 12.3259 17.0338 12.3529C16.9689 12.3799 16.8994 12.3938 16.8291 12.3938C16.7588 12.3938 16.6893 12.3799 16.6244 12.3529C16.5595 12.3259 16.5006 12.2864 16.4511 12.2365L15.5141 11.2995C15.4642 11.2498 15.4246 11.1908 15.3976 11.1257C15.3706 11.0607 15.3567 10.991 15.3567 10.9205C15.3567 10.8501 15.3706 10.7804 15.3976 10.7154C15.4246 10.6503 15.4642 10.5912 15.5141 10.5415L16.4511 9.60654C16.5519 9.50578 16.6875 9.44899 16.8301 9.44854ZM5.8161 10.1705C5.76593 10.1705 5.71624 10.1803 5.6699 10.1995C5.62356 10.2188 5.58148 10.247 5.5461 10.2825L0.118101 15.7115C0.0825749 15.7469 0.0543814 15.7888 0.0351428 15.8351C0.0159042 15.8814 0.006 15.931 0.006 15.981C0.006 16.0311 0.0159042 16.0807 0.0351428 16.127C0.0543814 16.1732 0.0825749 16.2152 0.118101 16.2505L1.2741 17.4065C1.34535 17.4777 1.44192 17.5176 1.5426 17.5176C1.64329 17.5176 1.73985 17.4777 1.8111 17.4065L7.2431 11.9755C7.31424 11.9043 7.3542 11.8077 7.3542 11.707C7.3542 11.6064 7.31424 11.5098 7.2431 11.4385L6.0861 10.2825C6.05072 10.247 6.00864 10.2188 5.9623 10.1995C5.91596 10.1803 5.86627 10.1705 5.8161 10.1705ZM24.0001 10.5865L17.1171 17.4695L22.5901 22.9395C22.6992 23.066 22.8451 23.1552 23.0073 23.1949C23.1696 23.2345 23.3401 23.2226 23.4953 23.1608C23.6504 23.0989 23.7824 22.9903 23.8729 22.8499C23.9634 22.7095 24.0079 22.5444 24.0001 22.3775V10.5865ZM9.1801 13.5985C9.12986 13.5986 9.08013 13.6086 9.03378 13.628C8.98744 13.6474 8.9454 13.6758 8.9101 13.7115L0.112101 22.5085C0.0765749 22.5439 0.0483814 22.5858 0.0291428 22.6321C0.00990418 22.6784 0 22.728 0 22.778C0 22.8281 0.00990418 22.8777 0.0291428 22.924C0.0483814 22.9702 0.0765749 23.0122 0.112101 23.0475L1.2681 24.2035C1.30343 24.2392 1.34549 24.2675 1.39183 24.2869C1.43817 24.3062 1.48789 24.3161 1.5381 24.3161C1.58831 24.3161 1.63803 24.3062 1.68437 24.2869C1.73071 24.2675 1.77277 24.2392 1.8081 24.2035L10.6041 15.4045C10.6396 15.3692 10.6678 15.3272 10.6871 15.281C10.7063 15.2347 10.7162 15.1851 10.7162 15.135C10.7162 15.085 10.7063 15.0354 10.6871 14.9891C10.6678 14.9428 10.6396 14.9009 10.6041 14.8655L9.4501 13.7115C9.4148 13.6758 9.37276 13.6474 9.32642 13.628C9.28007 13.6086 9.23034 13.5986 9.1801 13.5985ZM12.5451 16.9465C12.4951 16.9462 12.4455 16.9557 12.3991 16.9746C12.3528 16.9935 12.3106 17.0213 12.2751 17.0565L6.8451 22.4885C6.77396 22.5598 6.734 22.6564 6.734 22.757C6.734 22.8577 6.77396 22.9543 6.8451 23.0255L8.0001 24.1815C8.03542 24.2171 8.07741 24.2453 8.12366 24.2645C8.16991 24.2837 8.21951 24.2936 8.2696 24.2936C8.31969 24.2936 8.36929 24.2837 8.41554 24.2645C8.46179 24.2453 8.50379 24.2171 8.5391 24.1815L13.9681 18.7505C14.0392 18.6793 14.0792 18.5827 14.0792 18.482C14.0792 18.3814 14.0392 18.2848 13.9681 18.2135L12.8121 17.0575C12.7411 16.9862 12.6447 16.9459 12.5441 16.9455" fill="white"/>
</svg>
