<svg width="40" height="41" viewBox="0 0 40 41" fill="none" xmlns="http://www.w3.org/2000/svg">
<path d="M24.0323 31.2175L28.0974 39.3468L32.2246 35.1145L38.52 35.1776L32.6629 23.5464V23.5264M15.4877 31.2175L11.4226 39.3468L7.29536 35.1145L1 35.1776L6.85712 23.5464V23.5264" stroke="white" stroke-width="2" stroke-linecap="round" stroke-linejoin="round"/>
<path d="M34.9342 16.4175C34.9342 18.0024 33.5374 19.3361 33.0782 20.7539C32.6199 22.1706 32.9331 24.1096 32.0366 25.3393C31.1401 26.569 29.2221 26.8401 28.0965 27.7576C26.9709 28.6751 26.0124 30.384 24.5536 30.8632C23.0939 31.3425 21.447 30.425 19.8631 30.425C18.2793 30.425 16.5914 31.3215 15.1736 30.8632C13.7559 30.404 12.8594 28.632 11.6297 27.7576C10.3991 26.8821 8.48206 26.569 7.58558 25.3393C6.68911 24.1086 7.02328 22.2126 6.54403 20.7539C6.06377 19.2941 4.58398 18.0024 4.58398 16.4175C4.58398 14.8327 5.98073 13.5 6.43897 12.0822C6.89722 10.6645 6.58505 8.72644 7.48153 7.49678C8.37801 6.26713 10.296 5.99598 11.5257 5.07849C12.7553 4.16101 13.5057 2.45209 15.0686 1.97284C16.6324 1.49258 18.1752 2.41007 19.7591 2.41007C21.3429 2.41007 23.0308 1.51359 24.4496 1.97284C25.8663 2.43108 26.7628 4.20303 28.0965 5.07849C29.4302 5.95396 31.2442 6.26613 32.1407 7.49678C33.0372 8.72744 32.704 10.6235 33.1832 12.0822C33.6625 13.541 34.9342 14.8337 34.9342 16.4175ZM19.7591 10.1642C18.1005 10.1642 16.5098 10.8231 15.3369 11.9959C14.1641 13.1687 13.5052 14.7594 13.5052 16.418C13.5052 18.0767 14.1641 19.6673 15.3369 20.8402C16.5098 22.013 18.1005 22.6719 19.7591 22.6719C21.4176 22.6719 23.0081 22.013 24.1808 20.8403C25.3536 19.6676 26.0124 18.077 26.0124 16.4185C26.0124 14.7601 25.3536 13.1695 24.1808 11.9968C23.0081 10.824 21.4176 10.1642 19.7591 10.1642Z" stroke="#60AAF5" stroke-width="2" stroke-linecap="round" stroke-linejoin="round"/>
</svg>
