<svg width="32" height="32" viewBox="0 0 32 32" fill="none" xmlns="http://www.w3.org/2000/svg">
<path d="M14.463 8.25009C14.3037 7.79732 14.0078 7.40516 13.6161 7.1277C13.2244 6.85025 12.7563 6.70117 12.2763 6.70103H10.4791C9.96924 6.70246 9.47785 6.89192 9.09902 7.23313C8.72018 7.57433 8.48053 8.0433 8.42596 8.55021C8.37139 9.05712 8.50574 9.56634 8.80328 9.98036C9.10082 10.3944 9.54063 10.6841 10.0385 10.794L12.7702 11.3923C13.3292 11.5143 13.8233 11.8386 14.1576 12.3029C14.4919 12.7672 14.6428 13.3387 14.5812 13.9074C14.5196 14.4762 14.25 15.0022 13.8241 15.3842C13.3982 15.7662 12.8461 15.9773 12.274 15.9768H10.7272C10.2478 15.977 9.78006 15.8286 9.38844 15.5521C8.99683 15.2755 8.70057 14.8843 8.54043 14.4324M11.5041 6.70103V4.38208M11.5041 18.2958V15.9768M15.9263 30.9735V18.799C15.9263 18.0302 16.2317 17.2929 16.7753 16.7493C17.3189 16.2057 18.0562 15.9003 18.825 15.9003C19.5938 15.9003 20.3311 16.2057 20.8747 16.7493C21.4183 17.2929 21.7237 18.0302 21.7237 18.799V25.1761H26.3616C27.5916 25.1761 28.7713 25.6648 29.6411 26.5345C30.5109 27.4043 30.9995 28.584 30.9995 29.814V30.9735" stroke="#60AAF5" stroke-linecap="round" stroke-linejoin="round"/>
<path d="M11.5057 21.8481C9.36622 21.8478 7.27778 21.1944 5.51964 19.9752C3.76149 18.756 2.41745 17.0291 1.66719 15.0254C0.916942 13.0218 0.796242 10.8368 1.32123 8.7627C1.84622 6.68859 2.99188 4.82417 4.60504 3.41873C6.21819 2.01328 8.22195 1.13379 10.3484 0.89784C12.4749 0.661889 14.6227 1.08072 16.5047 2.09835C18.3867 3.11597 19.9133 4.68388 20.8802 6.59245C21.8471 8.50102 22.2083 10.6593 21.9155 12.7787" stroke="#60AAF5" stroke-linecap="round"/>
</svg>
