<svg width="25" height="26" viewBox="0 0 25 26" fill="none" xmlns="http://www.w3.org/2000/svg">
<path d="M16.3978 13.335L24.1926 5.53993C25.2691 4.46346 25.2691 2.71789 24.1926 1.64142C23.1162 0.564947 21.3706 0.564947 20.2941 1.64142L9.69361 12.2423L1.89992 4.44852C1.67555 4.22043 1.55039 3.91293 1.5517 3.59299C1.553 3.27305 1.68066 2.96658 1.90688 2.74033C2.1331 2.51408 2.43954 2.38637 2.75949 2.38501C3.07943 2.38366 3.38695 2.50877 3.61507 2.7331L9.676 8.7947L4.70688 1.64155C4.45094 1.38546 4.14705 1.1823 3.81256 1.04369C3.47808 0.905082 3.11956 0.83374 2.75749 0.83374C2.39543 0.83374 2.03691 0.905082 1.70242 1.04369C1.36794 1.1823 1.06404 1.38546 0.808102 1.64155C-0.268504 2.71803 -0.268504 4.46359 0.807569 5.53993L8.60299 13.335L0.807569 21.13C0.551543 21.3859 0.348448 21.6898 0.209883 22.0243C0.0713188 22.3587 0 22.7172 0 23.0792C0 23.4413 0.0713188 23.7997 0.209883 24.1342C0.348448 24.4687 0.551543 24.7725 0.807569 25.0285C1.88431 26.105 3.62988 26.1054 4.70635 25.0285L15.3073 14.4282L23.1004 22.2215C23.3279 22.449 23.4557 22.7575 23.4557 23.0792C23.4557 23.4009 23.3279 23.7095 23.1004 23.937C22.873 24.1644 22.5644 24.2922 22.2427 24.2922C21.921 24.2922 21.6125 24.1644 21.385 23.937L15.3247 17.876L20.2939 25.0285C20.8108 25.5455 21.512 25.8359 22.2431 25.8359C22.9742 25.8359 23.6754 25.5455 24.1924 25.0285C25.2691 23.952 25.2691 22.2065 24.1924 21.13L16.3978 13.335ZM14.2159 13.3368L3.61507 23.937C3.38695 24.1613 3.07943 24.2864 2.75949 24.285C2.43954 24.2837 2.1331 24.156 1.90688 23.9297C1.68066 23.7035 1.553 23.397 1.5517 23.0771C1.55039 22.7571 1.67555 22.4496 1.89992 22.2215L10.7864 13.335L10.7852 13.3339L21.3857 2.7331C21.498 2.61894 21.6318 2.52815 21.7793 2.46596C21.9269 2.40377 22.0853 2.37141 22.2454 2.37076C22.4056 2.37011 22.5642 2.40117 22.7123 2.46215C22.8604 2.52314 22.9949 2.61284 23.1081 2.72608C23.2213 2.83932 23.311 2.97386 23.372 3.12193C23.4329 3.27001 23.464 3.42869 23.4633 3.58882C23.4626 3.74895 23.4302 3.90736 23.368 4.05491C23.3058 4.20247 23.215 4.33624 23.1008 4.44852L14.2144 13.335L14.2159 13.3368Z" fill="url(#paint0_linear_2011_656)"/>
<defs>
<linearGradient id="paint0_linear_2011_656" x1="0.000547634" y1="13.3348" x2="25.0001" y2="13.3348" gradientUnits="userSpaceOnUse">
<stop stop-color="#57B597"/>
<stop offset="0.25" stop-color="#72F1C8"/>
<stop offset="0.5" stop-color="white"/>
<stop offset="0.8" stop-color="#60AAF5"/>
<stop offset="1" stop-color="#759DF8"/>
</linearGradient>
</defs>
</svg>
