<svg xmlns="http://www.w3.org/2000/svg" viewBox="0 0 33.18 33.18"><title>whatsapp</title><g id="Layer_2" data-name="Layer 2"><g id="ELEMENTS"><path d="M16.93,8a8,8,0,0,0-6.82,12.13l.21.34-.8,3,3-.8.33.2A8,8,0,1,0,16.93,8Zm4.69,11a2.34,2.34,0,0,1-1.78,1.33,3.7,3.7,0,0,1-2-.31,8.17,8.17,0,0,1-1.69-.8,9.71,9.71,0,0,1-2.71-2.52c-.23-.31-.43-.62-.63-.95a5.09,5.09,0,0,1-.59-1.38,2.57,2.57,0,0,1-.08-.62,2.46,2.46,0,0,1,.86-2,1.11,1.11,0,0,1,1.22-.18c.42.23.63.82.82,1.24a2,2,0,0,1,.26,1.11,2.15,2.15,0,0,1-.58.94.4.4,0,0,0-.05.53,6.36,6.36,0,0,0,3.19,2.73.35.35,0,0,0,.46-.09c.23-.3.47-.87.84-1a1.63,1.63,0,0,1,1.41.32c.37.22,1,.5,1.11,1A1.11,1.11,0,0,1,21.62,19Z"/><path d="M16.59,0A16.59,16.59,0,1,0,33.18,16.59,16.59,16.59,0,0,0,16.59,0Zm.34,25.82a9.73,9.73,0,0,1-4.68-1.2L6.89,26.06l1.43-5.33a9.84,9.84,0,1,1,8.61,5.09Z"/></g></g></svg>