<svg xmlns="http://www.w3.org/2000/svg" xmlns:xlink="http://www.w3.org/1999/xlink" viewBox="0 0 799.67 799.74"><defs><style>.cls-1{fill:url(#linear-gradient);}</style><linearGradient id="linear-gradient" y1="570.21" x2="799.67" y2="570.21" gradientTransform="matrix(1, 0, 0, -1, 0, 970.08)" gradientUnits="userSpaceOnUse"><stop offset="0" stop-color="#57b597"/><stop offset="0.25" stop-color="#72f1c8"/><stop offset="0.5" stop-color="#fff"/><stop offset="0.8" stop-color="#60aaf5"/><stop offset="1" stop-color="#759df8"/></linearGradient></defs><title>logo only</title><g id="Layer_2" data-name="Layer 2"><g id="Layer_1-2" data-name="Layer 1"><path class="cls-1" d="M524.51,399.87,773.84,150.54a88.17,88.17,0,0,0,0-124.7h0a88.17,88.17,0,0,0-124.7,0L310.07,364.92,60.77,115.62a38.8,38.8,0,0,1,54.86-54.87L309.5,254.64,150.56,25.84a88.15,88.15,0,0,0-124.67,0l0,0a88.19,88.19,0,0,0,0,124.7L275.18,399.87,25.83,649.21a88.17,88.17,0,0,0,0,124.68l0,0a88.18,88.18,0,0,0,124.71,0L489.63,434.84,738.91,684.13A38.8,38.8,0,0,1,684,739L490.19,545.13,649.13,773.91a88.18,88.18,0,0,0,124.7-124.7Zm-69.79.06L115.63,739a38.8,38.8,0,0,1-54.86-54.87L345,399.87l0,0L684.06,60.75a38.8,38.8,0,0,1,55.32,54.42l-.46.45L454.67,399.87Z"/></g></g></svg>